# xmcd
#
# Track frame offsets:
#	150
#	19885
#	38164
#	67723
#	85277
#	110934
#	129290
#	150784
#	183963
#	219474
#	242102
#	258457
#	278786
#
# Disc length: 4022 seconds
#
# Revision: 2
# Processed by: cddbd v1.5.2PL0 Copyright (c) Steve Scherf et al.
# Submitted via: EasyCDDAExtractor 11.0.2.1
#
DISCID=aa0fb40d
DTITLE=Various Artist - Pátria e Querência
DYEAR=2003
DGENRE=Chamame
TTITLE0=Fabio Oliveira - Mates de fim de tarde
TTITLE1=Silvio Souza - Parceiros da distância
TTITLE2=Fabio Oliveira - Lamento de um peão posteiro
TTITLE3=Silvio Souza - Pataço de um cavalo
TTITLE4=Fabio Oliveira - Pátria e Querência
TTITLE5=Silvio Souza - Bravos combatentes
TTITLE6=Silvio Souza - Tropa encerrada
TTITLE7=Silvio Souza - Recordações
TTITLE8=Fabio Oliveira - De amores e domas
TTITLE9=Silvio Souza - Tipo de vida
TTITLE10=Fabio Oliveira - Recuerdos de campo
TTITLE11=Silvio Souza - Ideal Riograndense
TTITLE12=Fabio Oliveira - Soy Yo
EXTD=
EXTT0=
EXTT1=
EXTT2=
EXTT3=
EXTT4=
EXTT5=
EXTT6=
EXTT7=
EXTT8=
EXTT9=
EXTT10=
EXTT11=
EXTT12=
PLAYORDER=
